# xmcd
#
# Track frame offsets: 
#        150
#        22832
#        48462
#        68950
#        88212
#        111025
#        129610
#        150560
#        171860
#        197580
#
# Disc length: 2844 seconds
#
# Revision: 0
# Processed by: cddbd v1.5.2PL0 Copyright (c) Steve Scherf et al.
# Submitted via: ExactAudioCopy v1.0b3
#
DISCID=800b1a0a
DTITLE=Che Linh - Nhac Yeu Cau 1
DYEAR=1992
DGENRE=
TTITLE0=Buom trang (Nguoi hang xom)
TTITLE1=Che Linh, Thien Trang - Neu chung minh cach tro
TTITLE2=Ben giang dau (Nang chieu 2)
TTITLE3=Nho mua hoa tim
TTITLE4=Tinh chang y thiep
TTITLE5=Xin goi nhau la co nhan
TTITLE6=Thuong hoai ngan nam
TTITLE7=Nho nguoi yeu
TTITLE8=Tam su nguoi linh tre
TTITLE9=Tien buoc sang ngang
EXTD=
EXTT0=
EXTT1=
EXTT2=
EXTT3=
EXTT4=
EXTT5=
EXTT6=
EXTT7=
EXTT8=
EXTT9=
PLAYORDER=
